ply
format ascii 1.0
element vertex 1024
property float x
property float y
property float z
property uchar red
property uchar green
property uchar blue
end_header
1.0000 0.0000 0.0000 127 255 22
1.0012 0.0123 0.0012 129 254 198
1.0022 0.0246 0.0025 130 254 167
1.0030 0.0370 0.0037 132 254 112
1.0037 0.0494 0.0049 133 254 110
1.0042 0.0618 0.0061 135 254 219
1.0046 0.0742 0.0074 136 254 22
1.0049 0.0866 0.0086 138 254 178
1.0050 0.0991 0.0098 140 254 51
1.0049 0.1115 0.0111 141 254 24
1.0047 0.1240 0.0123 143 254 134
1.0043 0.1365 0.0135 144 253 249
1.0037 0.1490 0.0147 146 253 188
1.0030 0.1616 0.0160 147 253 194
1.0022 0.1741 0.0172 149 253 183
1.0012 0.1866 0.0184 150 252 201
1.0000 0.1991 0.0197 152 252 131
0.9987 0.2116 0.0209 153 252 32
0.9972 0.2242 0.0221 155 251 214
0.9956 0.2367 0.0233 156 251 115
0.9938 0.2492 0.0246 158 251 128
0.9919 0.2617 0.0258 160 250 94
0.9897 0.2742 0.0270 161 250 46
0.9875 0.2867 0.0283 163 249 237
0.9851 0.2991 0.0295 164 249 200
0.9825 0.3116 0.0307 166 249 164
0.9798 0.3240 0.0319 167 248 103
0.9769 0.3364 0.0332 169 248 210
0.9738 0.3488 0.0344 170 247 139
0.9706 0.3612 0.0356 171 246 113
0.9672 0.3735 0.0369 173 246 115
0.9637 0.3858 0.0381 174 245 58
0.9600 0.3981 0.0393 176 245 23
0.9562 0.4103 0.0405 177 244 141
0.9522 0.4226 0.0418 179 244 227
0.9481 0.4347 0.0430 180 243 16
0.9438 0.4469 0.0442 182 242 219
0.9393 0.4590 0.0455 183 242 211
0.9347 0.4710 0.0467 184 241 70
0.9299 0.4830 0.0479 186 240 161
0.9250 0.4950 0.0491 187 239 42
0.9199 0.5069 0.0504 189 239 194
0.9147 0.5188 0.0516 190 238 179
0.9093 0.5306 0.0528 191 237 90
0.9038 0.5424 0.0540 193 236 17
0.8981 0.5541 0.0553 194 236 248
0.8923 0.5657 0.0565 195 235 114
0.8863 0.5773 0.0577 197 234 228
0.8802 0.5888 0.0590 198 233 173
0.8739 0.6003 0.0602 199 232 199
0.8674 0.6117 0.0614 200 231 194
0.8608 0.6230 0.0626 202 230 49
0.8541 0.6343 0.0639 203 229 93
0.8472 0.6455 0.0651 204 228 119
0.8402 0.6566 0.0663 206 227 127
0.8330 0.6676 0.0676 207 226 11
0.8257 0.6786 0.0688 208 226 139
0.8183 0.6895 0.0700 209 225 39
0.8107 0.7003 0.0712 210 223 190
0.8029 0.7110 0.0725 212 222 174
0.7950 0.7216 0.0737 213 221 236
0.7870 0.7322 0.0749 214 220 190
0.7789 0.7426 0.0762 215 219 93
0.7706 0.7530 0.0774 216 218 247
0.7621 0.7633 0.0786 217 217 105
0.7535 0.7735 0.0798 218 216 83
0.7448 0.7836 0.0811 219 215 231
0.7360 0.7935 0.0823 220 214 94
0.7270 0.8034 0.0835 222 213 19
0.7179 0.8132 0.0848 223 211 120
0.7086 0.8229 0.0860 224 210 203
0.6993 0.8325 0.0872 225 209 48
0.6898 0.8420 0.0884 226 208 118
0.6801 0.8513 0.0897 227 207 33
0.6704 0.8606 0.0909 228 205 175
0.6605 0.8698 0.0921 229 204 121
0.6505 0.8788 0.0934 229 203 84
0.6404 0.8877 0.0946 230 202 58
0.6301 0.8965 0.0958 231 200 144
0.6198 0.9052 0.0970 232 199 171
0.6093 0.9138 0.0983 233 198 240
0.5987 0.9222 0.0995 234 196 111
0.5880 0.9305 0.1007 235 195 41
0.5771 0.9387 0.1020 236 194 213
0.5662 0.9468 0.1032 236 192 161
0.5551 0.9547 0.1044 237 191 179
0.5440 0.9626 0.1056 238 190 24
0.5327 0.9703 0.1069 239 188 79
0.5213 0.9778 0.1081 240 187 196
0.5098 0.9852 0.1093 240 186 213
0.4982 0.9925 0.1106 241 184 111
0.4866 0.9997 0.1118 242 183 206
0.4748 1.0067 0.1130 242 181 215
0.4629 1.0135 0.1142 243 180 99
0.4509 1.0203 0.1155 244 179 229
0.4388 1.0269 0.1167 244 177 73
0.4266 1.0333 0.1179 245 176 61
0.4144 1.0396 0.1192 245 174 174
0.4020 1.0458 0.1204 246 173 163
0.3895 1.0518 0.1216 247 171 35
0.3770 1.0577 0.1228 247 170 213
0.3644 1.0634 0.1241 248 168 51
0.3517 1.0689 0.1253 248 167 206
0.3389 1.0743 0.1265 249 165 1
0.3260 1.0796 0.1278 249 164 203
0.3131 1.0847 0.1290 249 162 201
0.3001 1.0897 0.1302 250 161 199
0.2870 1.0944 0.1314 250 159 170
0.2738 1.0991 0.1327 251 158 120
0.2606 1.1036 0.1339 251 156 180
0.2472 1.1079 0.1351 251 155 70
0.2339 1.1120 0.1364 252 153 199
0.2204 1.1160 0.1376 252 152 142
0.2069 1.1198 0.1388 252 150 117
0.1934 1.1235 0.1400 253 149 129
0.1797 1.1270 0.1413 253 147 145
0.1661 1.1304 0.1425 253 146 9
0.1523 1.1335 0.1437 253 144 35
0.1385 1.1365 0.1449 254 142 62
0.1247 1.1394 0.1462 254 141 29
0.1108 1.1420 0.1474 254 139 112
0.0969 1.1445 0.1486 254 138 171
0.0829 1.1469 0.1499 254 136 167
0.0689 1.1490 0.1511 254 135 120
0.0548 1.1510 0.1523 254 133 218
0.0407 1.1528 0.1535 254 132 144
0.0266 1.1545 0.1548 254 130 20
0.0124 1.1559 0.1560 254 128 195
-0.0018 1.1572 0.1572 254 127 147
-0.0160 1.1584 0.1585 254 125 162
-0.0303 1.1593 0.1597 254 124 144
-0.0446 1.1601 0.1609 254 122 141
-0.0589 1.1607 0.1621 254 121 23
-0.0732 1.1611 0.1634 254 119 143
-0.0875 1.1613 0.1646 254 117 203
-0.1019 1.1614 0.1658 254 116 77
-0.1163 1.1613 0.1671 254 114 154
-0.1307 1.1610 0.1683 254 113 7
-0.1451 1.1605 0.1695 254 111 88
-0.1595 1.1598 0.1707 253 110 111
-0.1739 1.1590 0.1720 253 108 251
-0.1883 1.1580 0.1732 253 107 54
-0.2028 1.1568 0.1744 253 105 70
-0.2172 1.1554 0.1757 252 103 104
-0.2316 1.1539 0.1769 252 102 254
-0.2460 1.1521 0.1781 252 100 218
-0.2604 1.1502 0.1793 251 99 8
-0.2748 1.1481 0.1806 251 97 59
-0.2892 1.1459 0.1818 251 96 210
-0.3036 1.1434 0.1830 250 94 14
-0.3179 1.1408 0.1843 250 93 219
-0.3322 1.1380 0.1855 249 91 72
-0.3466 1.1350 0.1867 249 90 234
-0.3608 1.1318 0.1879 248 88 75
-0.3751 1.1285 0.1892 248 87 111
-0.3893 1.1249 0.1904 247 85 169
-0.4035 1.1212 0.1916 247 84 32
-0.4177 1.1173 0.1929 246 82 142
-0.4319 1.1133 0.1941 246 81 129
-0.4460 1.1090 0.1953 245 79 200
-0.4600 1.1046 0.1965 245 78 255
-0.4740 1.1000 0.1978 244 77 170
-0.4880 1.0952 0.1990 243 75 104
-0.5019 1.0902 0.2002 243 74 104
-0.5158 1.0851 0.2015 242 72 106
-0.5297 1.0798 0.2027 241 71 208
-0.5434 1.0743 0.2039 241 69 82
-0.5572 1.0686 0.2051 240 68 42
-0.5708 1.0628 0.2064 239 67 85
-0.5844 1.0568 0.2076 239 65 5
-0.5980 1.0506 0.2088 238 64 27
-0.6115 1.0442 0.2101 237 63 23
-0.6249 1.0377 0.2113 236 61 197
-0.6382 1.0310 0.2125 235 60 184
-0.6515 1.0241 0.2137 235 59 178
-0.6647 1.0170 0.2150 234 57 118
-0.6778 1.0098 0.2162 233 56 183
-0.6909 1.0024 0.2174 232 55 41
-0.7038 0.9949 0.2187 231 53 230
-0.7167 0.9871 0.2199 230 52 128
-0.7295 0.9792 0.2211 229 51 240
-0.7422 0.9712 0.2223 228 50 38
-0.7549 0.9629 0.2236 227 48 127
-0.7674 0.9546 0.2248 226 47 178
-0.7799 0.9460 0.2260 225 46 126
-0.7922 0.9373 0.2273 224 45 114
-0.8045 0.9284 0.2285 223 44 42
-0.8166 0.9194 0.2297 222 42 97
-0.8287 0.9102 0.2309 221 41 61
-0.8407 0.9008 0.2322 220 40 77
-0.8525 0.8913 0.2334 219 39 175
-0.8643 0.8817 0.2346 218 38 161
-0.8759 0.8719 0.2358 217 37 155
-0.8874 0.8619 0.2371 216 36 92
-0.8988 0.8518 0.2383 215 34 245
-0.9101 0.8415 0.2395 214 33 22
-0.9213 0.8311 0.2408 212 32 87
-0.9324 0.8205 0.2420 211 31 30
-0.9433 0.8098 0.2432 210 30 86
-0.9541 0.7989 0.2444 209 29 246
-0.9648 0.7879 0.2457 208 28 93
-0.9754 0.7768 0.2469 206 27 232
-0.9858 0.7655 0.2481 205 26 126
-0.9961 0.7541 0.2494 204 25 179
-1.0063 0.7425 0.2506 203 24 117
-1.0163 0.7308 0.2518 201 23 68
-1.0263 0.7190 0.2530 200 23 195
-1.0360 0.7070 0.2543 199 22 248
-1.0457 0.6949 0.2555 198 21 67
-1.0551 0.6827 0.2567 196 20 199
-1.0645 0.6703 0.2580 195 19 66
-1.0737 0.6578 0.2592 194 18 183
-1.0827 0.6452 0.2604 192 17 201
-1.0916 0.6325 0.2616 191 17 115
-1.1004 0.6196 0.2629 190 16 188
-1.1090 0.6067 0.2641 188 15 69
-1.1175 0.5936 0.2653 187 14 20
-1.1258 0.5804 0.2666 185 14 24
-1.1339 0.5670 0.2678 184 13 114
-1.1419 0.5536 0.2690 183 12 231
-1.1497 0.5401 0.2702 181 12 32
-1.1574 0.5264 0.2715 180 11 116
-1.1649 0.5127 0.2727 178 10 180
-1.1722 0.4988 0.2739 177 10 51
-1.1794 0.4848 0.2752 175 9 184
-1.1864 0.4707 0.2764 174 8 78
-1.1932 0.4566 0.2776 173 8 207
-1.1999 0.4423 0.2788 171 7 148
-1.2064 0.4279 0.2801 170 7 140
-1.2127 0.4135 0.2813 168 6 45
-1.2189 0.3989 0.2825 167 6 118
-1.2249 0.3843 0.2838 165 5 219
-1.2307 0.3696 0.2850 164 5 4
-1.2363 0.3548 0.2862 162 4 194
-1.2418 0.3399 0.2874 161 4 126
-1.2470 0.3249 0.2887 159 4 184
-1.2521 0.3099 0.2899 158 3 169
-1.2570 0.2948 0.2911 156 3 110
-1.2618 0.2796 0.2924 155 3 79
-1.2663 0.2643 0.2936 153 2 160
-1.2707 0.2489 0.2948 152 2 35
-1.2748 0.2335 0.2960 150 2 149
-1.2788 0.2181 0.2973 148 1 24
-1.2826 0.2025 0.2985 147 1 166
-1.2862 0.1869 0.2997 145 1 160
-1.2896 0.1713 0.3010 144 1 21
-1.2929 0.1556 0.3022 142 0 193
-1.2959 0.1398 0.3034 141 0 106
-1.2987 0.1240 0.3046 139 0 201
-1.3014 0.1082 0.3059 138 0 10
-1.3038 0.0922 0.3071 136 0 45
-1.3061 0.0763 0.3083 134 0 126
-1.3082 0.0603 0.3096 133 0 48
-1.3100 0.0443 0.3108 131 0 84
-1.3117 0.0282 0.3120 130 0 169
-1.3132 0.0121 0.3132 128 0 36
-1.3145 -0.0040 0.3145 127 0 173
-1.3155 -0.0202 0.3157 125 0 26
-1.3164 -0.0364 0.3169 123 0 44
-1.3171 -0.0526 0.3182 122 0 150
-1.3176 -0.0688 0.3194 120 0 203
-1.3179 -0.0851 0.3206 119 0 43
-1.3179 -0.1014 0.3218 117 0 76
-1.3178 -0.1177 0.3231 116 0 236
-1.3175 -0.1340 0.3243 114 0 253
-1.3170 -0.1503 0.3255 113 0 148
-1.3162 -0.1666 0.3268 111 1 114
-1.3153 -0.1829 0.3280 109 1 88
-1.3142 -0.1993 0.3292 108 1 156
-1.3129 -0.2156 0.3304 106 1 151
-1.3113 -0.2319 0.3317 105 1 75
-1.3096 -0.2482 0.3329 103 2 5
-1.3076 -0.2645 0.3341 102 2 38
-1.3055 -0.2808 0.3353 100 2 245
-1.3031 -0.2971 0.3366 99 3 107
-1.3006 -0.3134 0.3378 97 3 123
-1.2978 -0.3297 0.3390 96 3 119
-1.2949 -0.3459 0.3403 94 4 200
-1.2917 -0.3621 0.3415 93 4 16
-1.2883 -0.3783 0.3427 91 5 21
-1.2848 -0.3944 0.3439 90 5 70
-1.2810 -0.4106 0.3452 88 6 124
-1.2770 -0.4267 0.3464 87 6 171
-1.2728 -0.4427 0.3476 85 7 125
-1.2685 -0.4587 0.3489 84 7 112
-1.2639 -0.4747 0.3501 82 8 240
-1.2591 -0.4907 0.3513 81 8 41
-1.2541 -0.5065 0.3525 79 9 146
-1.2489 -0.5224 0.3538 78 9 138
-1.2435 -0.5382 0.3550 76 10 121
-1.2380 -0.5539 0.3562 75 11 206
-1.2322 -0.5696 0.3575 74 11 68
-1.2262 -0.5852 0.3587 72 12 244
-1.2200 -0.6008 0.3599 71 13 84
-1.2136 -0.6163 0.3611 69 13 139
-1.2071 -0.6317 0.3624 68 14 133
-1.2003 -0.6471 0.3636 66 15 217
-1.1933 -0.6624 0.3648 65 16 112
-1.1862 -0.6776 0.3661 64 16 72
-1.1788 -0.6927 0.3673 62 17 5
-1.1713 -0.7078 0.3685 61 18 93
-1.1635 -0.7228 0.3697 60 19 211
-1.1556 -0.7377 0.3710 58 20 2
-1.1475 -0.7525 0.3722 57 20 229
-1.1392 -0.7672 0.3734 56 21 138
-1.1307 -0.7818 0.3747 54 22 35
-1.1220 -0.7964 0.3759 53 23 77
-1.1131 -0.8108 0.3771 52 24 141
-1.1041 -0.8252 0.3783 51 25 80
-1.0948 -0.8394 0.3796 49 26 27
-1.0854 -0.8536 0.3808 48 27 170
-1.0758 -0.8676 0.3820 47 28 172
-1.0660 -0.8815 0.3833 46 29 30
-1.0560 -0.8953 0.3845 45 30 71
-1.0459 -0.9091 0.3857 43 31 62
-1.0355 -0.9227 0.3869 42 32 168
-1.0250 -0.9361 0.3882 41 33 186
-1.0143 -0.9495 0.3894 40 34 186
-1.0035 -0.9627 0.3906 39 35 240
-0.9925 -0.9758 0.3919 38 36 196
-0.9813 -0.9888 0.3931 36 37 82
-0.9699 -1.0017 0.3943 35 38 27
-0.9584 -1.0144 0.3955 34 39 157
-0.9467 -1.0270 0.3968 33 41 234
-0.9348 -1.0395 0.3980 32 42 249
-0.9228 -1.0518 0.3992 31 43 58
-0.9106 -1.0640 0.4005 30 44 60
-0.8982 -1.0761 0.4017 29 45 9
-0.8857 -1.0880 0.4029 28 47 36
-0.8731 -1.0997 0.4041 27 48 142
-0.8602 -1.1113 0.4054 26 49 139
-0.8473 -1.1228 0.4066 25 50 94
-0.8341 -1.1341 0.4078 24 51 79
-0.8209 -1.1453 0.4091 23 53 212
-0.8074 -1.1563 0.4103 22 54 117
-0.7939 -1.1671 0.4115 22 55 206
-0.7801 -1.1778 0.4127 21 57 246
-0.7663 -1.1883 0.4140 20 58 81
-0.7523 -1.1987 0.4152 19 59 51
-0.7381 -1.2089 0.4164 18 61 243
-0.7239 -1.2189 0.4177 17 62 162
-0.7094 -1.2288 0.4189 17 63 74
-0.6949 -1.2385 0.4201 16 65 159
-0.6802 -1.2480 0.4213 15 66 131
-0.6654 -1.2573 0.4226 14 67 231
-0.6505 -1.2665 0.4238 14 69 65
-0.6354 -1.2755 0.4250 13 70 253
-0.6202 -1.2843 0.4262 12 72 239
-0.6049 -1.2930 0.4275 12 73 46
-0.5895 -1.3014 0.4287 11 74 42
-0.5740 -1.3097 0.4299 10 76 136
-0.5583 -1.3178 0.4312 10 77 11
-0.5426 -1.3257 0.4324 9 79 76
-0.5267 -1.3334 0.4336 8 80 111
-0.5107 -1.3409 0.4348 8 82 248
-0.4946 -1.3482 0.4361 7 83 254
-0.4784 -1.3553 0.4373 7 85 38
-0.4621 -1.3623 0.4385 6 86 228
-0.4458 -1.3690 0.4398 6 88 23
-0.4293 -1.3756 0.4410 5 89 191
-0.4127 -1.3819 0.4422 5 91 216
-0.3960 -1.3881 0.4434 4 92 228
-0.3793 -1.3940 0.4447 4 94 57
-0.3624 -1.3997 0.4459 4 95 228
-0.3455 -1.4053 0.4471 3 97 29
-0.3285 -1.4106 0.4484 3 98 132
-0.3114 -1.4157 0.4496 2 100 120
-0.2942 -1.4207 0.4508 2 101 80
-0.2770 -1.4254 0.4520 2 103 5
-0.2597 -1.4299 0.4533 2 104 197
-0.2423 -1.4342 0.4545 1 106 85
-0.2249 -1.4383 0.4557 1 107 169
-0.2073 -1.4421 0.4570 1 109 105
-0.1898 -1.4458 0.4582 1 110 95
-0.1721 -1.4492 0.4594 0 112 226
-0.1545 -1.4525 0.4606 0 114 24
-0.1367 -1.4555 0.4619 0 115 188
-0.1189 -1.4583 0.4631 0 117 191
-0.1011 -1.4608 0.4643 0 118 97
-0.0832 -1.4632 0.4656 0 120 67
-0.0653 -1.4653 0.4668 0 121 1
-0.0473 -1.4673 0.4680 0 123 239
-0.0293 -1.4690 0.4692 0 124 242
-0.0113 -1.4704 0.4705 0 126 61
0.0068 -1.4717 0.4717 0 128 8
0.0249 -1.4727 0.4729 0 129 31
0.0430 -1.4735 0.4742 0 131 17
0.0611 -1.4741 0.4754 0 132 212
0.0793 -1.4745 0.4766 0 134 228
0.0975 -1.4746 0.4778 0 135 39
0.1157 -1.4745 0.4791 0 137 191
0.1339 -1.4742 0.4803 0 139 45
0.1521 -1.4737 0.4815 0 140 94
0.1704 -1.4729 0.4828 0 142 153
0.1886 -1.4719 0.4840 1 143 184
0.2069 -1.4707 0.4852 1 145 223
0.2251 -1.4693 0.4864 1 146 11
0.2433 -1.4676 0.4877 1 148 50
0.2615 -1.4657 0.4889 1 149 71
0.2798 -1.4636 0.4901 2 151 79
0.2980 -1.4613 0.4914 2 152 255
0.3162 -1.4587 0.4926 2 154 199
0.3343 -1.4559 0.4938 3 156 82
0.3525 -1.4529 0.4950 3 157 248
0.3706 -1.4496 0.4963 3 159 127
0.3887 -1.4462 0.4975 4 160 128
0.4068 -1.4425 0.4987 4 162 111
0.4248 -1.4385 0.5000 5 163 36
0.4428 -1.4344 0.5012 5 165 239
0.4608 -1.4300 0.5024 6 166 3
0.4787 -1.4254 0.5036 6 168 44
0.4966 -1.4206 0.5049 7 169 58
0.5144 -1.4155 0.5061 7 171 71
0.5322 -1.4103 0.5073 8 172 33
0.5499 -1.4048 0.5086 8 173 4
0.5676 -1.3990 0.5098 9 175 173
0.5852 -1.3931 0.5110 9 176 248
0.6028 -1.3869 0.5122 10 178 31
0.6202 -1.3805 0.5135 11 179 75
0.6377 -1.3739 0.5147 11 181 129
0.6550 -1.3671 0.5159 12 182 237
0.6723 -1.3600 0.5171 13 184 177
0.6895 -1.3528 0.5184 13 185 196
0.7067 -1.3453 0.5196 14 186 148
0.7237 -1.3376 0.5208 15 188 106
0.7407 -1.3297 0.5221 16 189 51
0.7576 -1.3215 0.5233 16 190 221
0.7744 -1.3132 0.5245 17 192 205
0.7911 -1.3046 0.5257 18 193 6
0.8077 -1.2959 0.5270 19 194 183
0.8242 -1.2869 0.5282 20 196 21
0.8407 -1.2777 0.5294 20 197 189
0.8570 -1.2683 0.5307 21 198 211
0.8732 -1.2587 0.5319 22 200 33
0.8893 -1.2488 0.5331 23 201 111
0.9053 -1.2388 0.5343 24 202 31
0.9212 -1.2286 0.5356 25 203 145
0.9370 -1.2182 0.5368 26 205 237
0.9526 -1.2075 0.5380 27 206 20
0.9681 -1.1967 0.5393 28 207 101
0.9835 -1.1856 0.5405 29 208 249
0.9988 -1.1744 0.5417 30 210 77
1.0140 -1.1630 0.5429 31 211 33
1.0290 -1.1513 0.5442 32 212 125
1.0439 -1.1395 0.5454 33 213 130
1.0587 -1.1275 0.5466 34 214 169
1.0733 -1.1153 0.5479 35 215 80
1.0878 -1.1029 0.5491 36 217 244
1.1021 -1.0903 0.5503 37 218 133
1.1163 -1.0776 0.5515 38 219 73
1.1304 -1.0646 0.5528 40 220 245
1.1443 -1.0515 0.5540 41 221 236
1.1580 -1.0382 0.5552 42 222 127
1.1716 -1.0247 0.5565 43 223 6
1.1850 -1.0110 0.5577 44 224 152
1.1983 -0.9972 0.5589 45 225 142
1.2114 -0.9831 0.5601 47 226 37
1.2244 -0.9689 0.5614 48 227 162
1.2371 -0.9546 0.5626 49 228 215
1.2497 -0.9400 0.5638 50 229 27
1.2622 -0.9254 0.5651 52 230 185
1.2745 -0.9105 0.5663 53 231 35
1.2866 -0.8955 0.5675 54 232 191
1.2985 -0.8803 0.5687 55 233 107
1.3102 -0.8649 0.5700 57 233 1
1.3218 -0.8495 0.5712 58 234 247
1.3332 -0.8338 0.5724 59 235 42
1.3443 -0.8180 0.5737 61 236 152
1.3553 -0.8021 0.5749 62 237 46
1.3662 -0.7860 0.5761 63 238 238
1.3768 -0.7697 0.5773 65 238 189
1.3872 -0.7533 0.5786 66 239 205
1.3975 -0.7368 0.5798 68 240 110
1.4075 -0.7201 0.5810 69 241 119
1.4173 -0.7034 0.5823 70 241 162
1.4270 -0.6864 0.5835 72 242 200
1.4364 -0.6694 0.5847 73 243 216
1.4456 -0.6522 0.5859 75 243 4
1.4547 -0.6349 0.5872 76 244 169
1.4635 -0.6174 0.5884 77 244 27
1.4721 -0.5999 0.5896 79 245 73
1.4805 -0.5822 0.5909 80 246 212
1.4887 -0.5644 0.5921 82 246 64
1.4967 -0.5465 0.5933 83 247 203
1.5044 -0.5285 0.5945 85 247 118
1.5120 -0.5103 0.5958 86 248 59
1.5193 -0.4921 0.5970 88 248 85
1.5264 -0.4738 0.5982 89 249 135
1.5333 -0.4553 0.5995 91 249 195
1.5399 -0.4368 0.6007 92 250 155
1.5464 -0.4182 0.6019 94 250 238
1.5526 -0.3994 0.6031 95 250 222
1.5586 -0.3806 0.6044 97 251 192
1.5643 -0.3617 0.6056 98 251 154
1.5698 -0.3428 0.6068 100 252 74
1.5751 -0.3237 0.6081 101 252 105
1.5802 -0.3046 0.6093 103 252 30
1.5850 -0.2853 0.6105 104 252 95
1.5896 -0.2661 0.6117 106 253 237
1.5940 -0.2467 0.6130 107 253 109
1.5981 -0.2273 0.6142 109 253 29
1.6020 -0.2078 0.6154 111 253 166
1.6057 -0.1882 0.6166 112 254 246
1.6091 -0.1686 0.6179 114 254 222
1.6122 -0.1490 0.6191 115 254 70
1.6152 -0.1292 0.6203 117 254 116
1.6179 -0.1095 0.6216 118 254 135
1.6203 -0.0897 0.6228 120 254 63
1.6225 -0.0698 0.6240 122 254 68
1.6245 -0.0499 0.6252 123 254 60
1.6262 -0.0300 0.6265 125 254 254
1.6277 -0.0100 0.6277 126 254 190
1.6289 0.0100 0.6289 128 254 215
1.6299 0.0300 0.6302 129 254 209
1.6306 0.0501 0.6314 131 254 245
1.6311 0.0702 0.6326 132 254 26
1.6314 0.0903 0.6338 134 254 225
1.6313 0.1104 0.6351 136 254 17
1.6311 0.1305 0.6363 137 254 121
1.6306 0.1507 0.6375 139 254 152
1.6298 0.1708 0.6388 140 254 91
1.6288 0.1909 0.6400 142 254 37
1.6276 0.2111 0.6412 143 253 49
1.6261 0.2312 0.6424 145 253 211
1.6243 0.2514 0.6437 147 253 81
1.6223 0.2715 0.6449 148 253 79
1.6201 0.2917 0.6461 150 252 236
1.6176 0.3118 0.6474 151 252 36
1.6148 0.3319 0.6486 153 252 234
1.6118 0.3519 0.6498 154 252 235
1.6086 0.3720 0.6510 156 251 153
1.6051 0.3920 0.6523 157 251 42
1.6014 0.4120 0.6535 159 250 39
1.5974 0.4320 0.6547 160 250 72
1.5931 0.4519 0.6560 162 250 147
1.5886 0.4718 0.6572 163 249 39
1.5839 0.4916 0.6584 165 249 116
1.5789 0.5114 0.6596 166 248 29
1.5736 0.5312 0.6609 168 248 138
1.5682 0.5508 0.6621 169 247 5
1.5624 0.5705 0.6633 171 247 181
1.5565 0.5901 0.6646 172 246 14
1.5502 0.6096 0.6658 174 246 49
1.5438 0.6291 0.6670 175 245 44
1.5371 0.6485 0.6682 177 244 212
1.5301 0.6678 0.6695 178 244 13
1.5229 0.6870 0.6707 179 243 109
1.5155 0.7062 0.6719 181 243 151
1.5078 0.7253 0.6732 182 242 132
1.4999 0.7443 0.6744 184 241 174
1.4917 0.7632 0.6756 185 241 205
1.4833 0.7821 0.6768 186 240 100
1.4747 0.8008 0.6781 188 239 212
1.4658 0.8195 0.6793 189 238 81
1.4567 0.8380 0.6805 191 238 252
1.4473 0.8565 0.6818 192 237 129
1.4377 0.8748 0.6830 193 236 188
1.4279 0.8931 0.6842 195 235 224
1.4179 0.9112 0.6854 196 234 202
1.4076 0.9292 0.6867 197 233 217
1.3971 0.9472 0.6879 199 233 137
1.3864 0.9649 0.6891 200 232 11
1.3754 0.9826 0.6904 201 231 126
1.3642 1.0002 0.6916 202 230 46
1.3528 1.0176 0.6928 204 229 227
1.3412 1.0349 0.6940 205 228 60
1.3293 1.0520 0.6953 206 227 58
1.3173 1.0691 0.6965 207 226 63
1.3050 1.0859 0.6977 209 225 164
1.2925 1.1027 0.6990 210 224 146
1.2798 1.1193 0.7002 211 223 242
1.2668 1.1357 0.7014 212 222 106
1.2537 1.1520 0.7026 213 221 72
1.2403 1.1682 0.7039 214 220 12
1.2268 1.1842 0.7051 216 219 1
1.2130 1.2000 0.7063 217 218 95
1.1990 1.2157 0.7075 218 217 237
1.1849 1.2313 0.7088 219 215 134
1.1705 1.2466 0.7100 220 214 228
1.1559 1.2618 0.7112 221 213 26
1.1412 1.2768 0.7125 222 212 23
1.1262 1.2917 0.7137 223 211 213
1.1110 1.3063 0.7149 224 210 27
1.0957 1.3208 0.7161 225 208 13
1.0802 1.3351 0.7174 226 207 103
1.0644 1.3493 0.7186 227 206 236
1.0485 1.3632 0.7198 228 205 176
1.0325 1.3770 0.7211 229 203 25
1.0162 1.3906 0.7223 230 202 214
0.9997 1.4039 0.7235 231 201 215
0.9831 1.4171 0.7247 232 200 204
0.9663 1.4301 0.7260 233 198 231
0.9494 1.4429 0.7272 234 197 61
0.9322 1.4555 0.7284 234 196 250
0.9149 1.4679 0.7297 235 194 82
0.8975 1.4800 0.7309 236 193 205
0.8798 1.4920 0.7321 237 192 148
0.8621 1.5038 0.7333 238 190 199
0.8441 1.5153 0.7346 238 189 160
0.8260 1.5267 0.7358 239 188 164
0.8078 1.5378 0.7370 240 186 157
0.7894 1.5487 0.7383 241 185 199
0.7709 1.5594 0.7395 241 184 189
0.7522 1.5698 0.7407 242 182 34
0.7333 1.5801 0.7419 243 181 211
0.7144 1.5901 0.7432 243 179 137
0.6953 1.5998 0.7444 244 178 82
0.6761 1.6094 0.7456 245 176 131
0.6567 1.6187 0.7469 245 175 247
0.6372 1.6278 0.7481 246 173 219
0.6176 1.6367 0.7493 246 172 213
0.5979 1.6453 0.7505 247 171 118
0.5780 1.6537 0.7518 247 169 200
0.5581 1.6618 0.7530 248 168 98
0.5380 1.6697 0.7542 248 166 175
0.5178 1.6774 0.7555 249 165 163
0.4975 1.6848 0.7567 249 163 63
0.4771 1.6919 0.7579 250 162 68
0.4566 1.6989 0.7591 250 160 15
0.4360 1.7055 0.7604 251 159 35
0.4153 1.7119 0.7616 251 157 111
0.3945 1.7181 0.7628 251 156 122
0.3737 1.7240 0.7641 252 154 42
0.3527 1.7297 0.7653 252 152 106
0.3317 1.7351 0.7665 252 151 154
0.3105 1.7403 0.7677 253 149 59
0.2893 1.7451 0.7690 253 148 86
0.2681 1.7498 0.7702 253 146 94
0.2467 1.7542 0.7714 253 145 129
0.2253 1.7583 0.7727 253 143 93
0.2038 1.7621 0.7739 254 142 188
0.1823 1.7657 0.7751 254 140 83
0.1607 1.7691 0.7763 254 139 111
0.1391 1.7721 0.7776 254 137 97
0.1174 1.7749 0.7788 254 135 46
0.0956 1.7775 0.7800 254 134 175
0.0738 1.7797 0.7813 254 132 60
0.0520 1.7817 0.7825 254 131 76
0.0301 1.7835 0.7837 254 129 202
0.0082 1.7849 0.7849 254 128 242
-0.0137 1.7861 0.7862 254 126 171
-0.0357 1.7870 0.7874 254 124 234
-0.0577 1.7877 0.7886 254 123 218
-0.0797 1.7881 0.7899 254 121 123
-0.1017 1.7882 0.7911 254 120 197
-0.1237 1.7880 0.7923 254 118 84
-0.1458 1.7876 0.7935 254 117 117
-0.1679 1.7869 0.7948 254 115 137
-0.1899 1.7859 0.7960 254 114 245
-0.2120 1.7847 0.7972 254 112 217
-0.2341 1.7832 0.7984 253 110 125
-0.2561 1.7814 0.7997 253 109 167
-0.2782 1.7793 0.8009 253 107 51
-0.3002 1.7770 0.8021 253 106 205
-0.3222 1.7743 0.8034 252 104 141
-0.3442 1.7715 0.8046 252 103 136
-0.3662 1.7683 0.8058 252 101 196
-0.3882 1.7649 0.8070 252 100 162
-0.4101 1.7612 0.8083 251 98 18
-0.4320 1.7572 0.8095 251 97 73
-0.4539 1.7529 0.8107 250 95 45
-0.4757 1.7484 0.8120 250 94 188
-0.4975 1.7436 0.8132 250 92 8
-0.5192 1.7385 0.8144 249 91 51
-0.5409 1.7332 0.8156 249 89 152
-0.5625 1.7276 0.8169 248 88 177
-0.5841 1.7217 0.8181 248 86 128
-0.6056 1.7156 0.8193 247 85 220
-0.6270 1.7092 0.8206 247 83 235
-0.6484 1.7025 0.8218 246 82 33
-0.6697 1.6955 0.8230 246 80 243
-0.6910 1.6883 0.8242 245 79 157
-0.7122 1.6808 0.8255 244 77 162
-0.7332 1.6731 0.8267 244 76 24
-0.7542 1.6651 0.8279 243 74 159
-0.7752 1.6568 0.8292 242 73 185
-0.7960 1.6483 0.8304 242 72 148
-0.8167 1.6394 0.8316 241 70 21
-0.8374 1.6304 0.8328 240 69 133
-0.8579 1.6211 0.8341 240 67 239
-0.8783 1.6115 0.8353 239 66 185
-0.8987 1.6016 0.8365 238 65 35
-0.9189 1.5915 0.8378 237 63 245
-0.9390 1.5812 0.8390 237 62 245
-0.9590 1.5706 0.8402 236 61 43
-0.9789 1.5597 0.8414 235 59 205
-0.9986 1.5486 0.8427 234 58 104
-1.0182 1.5373 0.8439 233 57 151
-1.0377 1.5257 0.8451 232 55 113
-1.0571 1.5138 0.8464 232 54 200
-1.0763 1.5017 0.8476 231 53 255
-1.0954 1.4894 0.8488 230 51 203
-1.1144 1.4768 0.8500 229 50 238
-1.1332 1.4639 0.8513 228 49 242
-1.1518 1.4509 0.8525 227 48 23
-1.1703 1.4376 0.8537 226 47 64
-1.1887 1.4240 0.8550 225 45 184
-1.2069 1.4102 0.8562 224 44 151
-1.2249 1.3962 0.8574 223 43 12
-1.2428 1.3820 0.8586 222 42 24
-1.2605 1.3675 0.8599 221 41 133
-1.2781 1.3528 0.8611 220 39 157
-1.2955 1.3379 0.8623 219 38 42
-1.3127 1.3228 0.8636 218 37 43
-1.3297 1.3074 0.8648 216 36 33
-1.3465 1.2918 0.8660 215 35 144
-1.3632 1.2760 0.8672 214 34 2
-1.3797 1.2600 0.8685 213 33 146
-1.3960 1.2438 0.8697 212 32 121
-1.4121 1.2274 0.8709 211 31 119
-1.4280 1.2107 0.8722 209 30 173
-1.4437 1.1939 0.8734 208 29 133
-1.4592 1.1768 0.8746 207 28 186
-1.4745 1.1596 0.8758 206 27 195
-1.4896 1.1421 0.8771 205 26 235
-1.5045 1.1245 0.8783 203 25 204
-1.5192 1.1066 0.8795 202 24 132
-1.5337 1.0886 0.8808 201 23 125
-1.5480 1.0704 0.8820 200 22 60
-1.5620 1.0520 0.8832 198 21 153
-1.5758 1.0334 0.8844 197 20 35
-1.5894 1.0146 0.8857 196 20 238
-1.6028 0.9956 0.8869 194 19 216
-1.6160 0.9765 0.8881 193 18 30
-1.6289 0.9572 0.8894 192 17 201
-1.6416 0.9377 0.8906 190 16 29
-1.6541 0.9181 0.8918 189 16 184
-1.6663 0.8983 0.8930 188 15 22
-1.6783 0.8783 0.8943 186 14 124
-1.6901 0.8582 0.8955 185 13 168
-1.7016 0.8379 0.8967 183 13 186
-1.7129 0.8175 0.8979 182 12 107
-1.7239 0.7969 0.8992 180 11 235
-1.7347 0.7762 0.9004 179 11 198
-1.7452 0.7553 0.9016 178 10 53
-1.7555 0.7343 0.9029 176 9 171
-1.7655 0.7131 0.9041 175 9 187
-1.7753 0.6918 0.9053 173 8 85
-1.7848 0.6704 0.9065 172 8 188
-1.7941 0.6488 0.9078 170 7 229
-1.8030 0.6271 0.9090 169 7 209
-1.8118 0.6053 0.9102 167 6 195
-1.8203 0.5834 0.9115 166 6 162
-1.8285 0.5614 0.9127 164 5 69
-1.8364 0.5392 0.9139 163 5 203
-1.8441 0.5169 0.9151 161 4 93
-1.8515 0.4946 0.9164 160 4 136
-1.8586 0.4721 0.9176 158 3 80
-1.8654 0.4495 0.9188 157 3 80
-1.8720 0.4268 0.9201 155 3 40
-1.8783 0.4041 0.9213 154 2 246
-1.8843 0.3812 0.9225 152 2 37
-1.8901 0.3583 0.9237 151 2 22
-1.8956 0.3352 0.9250 149 1 239
-1.9007 0.3121 0.9262 148 1 142
-1.9056 0.2889 0.9274 146 1 112
-1.9103 0.2657 0.9287 145 1 188
-1.9146 0.2423 0.9299 143 1 98
-1.9187 0.2190 0.9311 141 0 32
-1.9224 0.1955 0.9323 140 0 186
-1.9259 0.1720 0.9336 138 0 45
-1.9291 0.1484 0.9348 137 0 141
-1.9320 0.1248 0.9360 135 0 242
-1.9346 0.1011 0.9373 134 0 239
-1.9369 0.0774 0.9385 132 0 92
-1.9390 0.0536 0.9397 131 0 199
-1.9407 0.0298 0.9409 129 0 156
-1.9422 0.0060 0.9422 127 0 122
-1.9433 -0.0179 0.9434 126 0 35
-1.9442 -0.0418 0.9446 124 0 96
-1.9447 -0.0657 0.9459 123 0 166
-1.9450 -0.0897 0.9471 121 0 252
-1.9450 -0.1136 0.9483 120 0 1
-1.9447 -0.1376 0.9495 118 0 183
-1.9441 -0.1616 0.9508 116 0 216
-1.9432 -0.1855 0.9520 115 0 243
-1.9420 -0.2095 0.9532 113 0 108
-1.9405 -0.2335 0.9545 112 0 30
-1.9387 -0.2575 0.9557 110 1 69
-1.9366 -0.2815 0.9569 109 1 217
-1.9342 -0.3054 0.9581 107 1 224
-1.9315 -0.3294 0.9594 106 1 163
-1.9285 -0.3533 0.9606 104 2 31
-1.9252 -0.3772 0.9618 102 2 31
-1.9216 -0.4011 0.9631 101 2 122
-1.9178 -0.4249 0.9643 99 3 150
-1.9136 -0.4487 0.9655 98 3 8
-1.9091 -0.4725 0.9667 96 3 175
-1.9044 -0.4962 0.9680 95 4 139
-1.8993 -0.5199 0.9692 93 4 3
-1.8940 -0.5435 0.9704 92 4 24
-1.8883 -0.5671 0.9717 90 5 116
-1.8824 -0.5906 0.9729 89 5 184
-1.8762 -0.6141 0.9741 87 6 211
-1.8697 -0.6375 0.9753 86 6 110
-1.8628 -0.6608 0.9766 84 7 75
-1.8557 -0.6840 0.9778 83 7 247
-1.8483 -0.7072 0.9790 81 8 117
-1.8407 -0.7303 0.9803 80 8 80
-1.8327 -0.7534 0.9815 79 9 113
-1.8244 -0.7763 0.9827 77 10 3
-1.8159 -0.7991 0.9839 76 10 77
-1.8070 -0.8219 0.9852 74 11 131
-1.7979 -0.8446 0.9864 73 12 235
-1.7885 -0.8671 0.9876 71 12 188
-1.7788 -0.8896 0.9888 70 13 200
-1.7689 -0.9119 0.9901 69 14 139
-1.7586 -0.9341 0.9913 67 14 28
-1.7481 -0.9563 0.9925 66 15 100
-1.7373 -0.9783 0.9938 64 16 255
-1.7262 -1.0001 0.9950 63 17 11
-1.7148 -1.0219 0.9962 62 17 225
-1.7032 -1.0435 0.9974 60 18 175
-1.6913 -1.0650 0.9987 59 19 72
-1.6791 -1.0864 0.9999 58 20 199
-1.6667 -1.1076 1.0011 56 21 214
-1.6539 -1.1287 1.0024 55 22 11
-1.6410 -1.1496 1.0036 54 23 27
-1.6277 -1.1704 1.0048 53 23 170
-1.6142 -1.1911 1.0060 51 24 255
-1.6004 -1.2115 1.0073 50 25 6
-1.5864 -1.2319 1.0085 49 26 170
-1.5721 -1.2520 1.0097 48 27 34
-1.5575 -1.2720 1.0110 46 28 166
-1.5427 -1.2918 1.0122 45 29 159
-1.5277 -1.3115 1.0134 44 30 23
-1.5124 -1.3310 1.0146 43 31 174
-1.4968 -1.3503 1.0159 42 32 229
-1.4810 -1.3694 1.0171 40 33 221
-1.4650 -1.3883 1.0183 39 34 7
-1.4487 -1.4071 1.0196 38 36 62
-1.4322 -1.4256 1.0208 37 37 61
-1.4154 -1.4440 1.0220 36 38 116
-1.3984 -1.4621 1.0232 35 39 36
-1.3812 -1.4801 1.0245 34 40 218
-1.3638 -1.4979 1.0257 33 41 198
-1.3461 -1.5154 1.0269 32 42 206
-1.3282 -1.5328 1.0282 31 44 50
-1.3100 -1.5499 1.0294 30 45 3
-1.2917 -1.5668 1.0306 29 46 233
-1.2731 -1.5835 1.0318 28 47 73
-1.2543 -1.6000 1.0331 27 48 168
-1.2353 -1.6163 1.0343 26 50 232
-1.2161 -1.6323 1.0355 25 51 9
-1.1967 -1.6481 1.0368 24 52 1
-1.1770 -1.6637 1.0380 23 53 1
-1.1572 -1.6791 1.0392 22 55 40
-1.1372 -1.6942 1.0404 21 56 13
-1.1170 -1.7090 1.0417 20 57 209
-1.0965 -1.7237 1.0429 19 59 155
-1.0759 -1.7380 1.0441 19 60 250
-1.0551 -1.7522 1.0454 18 61 205
-1.0342 -1.7661 1.0466 17 63 246
-1.0130 -1.7797 1.0478 16 64 61
-0.9917 -1.7931 1.0490 15 65 73
-0.9701 -1.8062 1.0503 15 67 217
-0.9484 -1.8191 1.0515 14 68 62
-0.9266 -1.8317 1.0527 13 69 14
-0.9045 -1.8440 1.0540 13 71 171
-0.8824 -1.8561 1.0552 12 72 205
-0.8600 -1.8679 1.0564 11 74 247
-0.8375 -1.8795 1.0576 11 75 237
-0.8148 -1.8908 1.0589 10 77 30
-0.7920 -1.9018 1.0601 9 78 197
-0.7691 -1.9125 1.0613 9 79 216
-0.7459 -1.9229 1.0626 8 81 178
-0.7227 -1.9331 1.0638 8 82 209
-0.6993 -1.9430 1.0650 7 84 214
-0.6758 -1.9526 1.0662 7 85 114
-0.6522 -1.9619 1.0675 6 87 10
-0.6284 -1.9709 1.0687 6 88 116
-0.6045 -1.9797 1.0699 5 90 51
-0.5805 -1.9881 1.0712 5 91 29
-0.5563 -1.9963 1.0724 4 93 31
-0.5321 -2.0042 1.0736 4 94 178
-0.5077 -2.0118 1.0748 3 96 129
-0.4833 -2.0190 1.0761 3 97 138
-0.4587 -2.0260 1.0773 3 99 190
-0.4340 -2.0327 1.0785 2 100 140
-0.4093 -2.0391 1.0797 2 102 161
-0.3844 -2.0452 1.0810 2 103 22
-0.3595 -2.0509 1.0822 1 105 217
-0.3344 -2.0564 1.0834 1 107 114
-0.3093 -2.0616 1.0847 1 108 39
-0.2842 -2.0664 1.0859 1 110 208
-0.2589 -2.0710 1.0871 0 111 188
-0.2336 -2.0752 1.0883 0 113 13
-0.2082 -2.0792 1.0896 0 114 49
-0.1828 -2.0828 1.0908 0 116 4
-0.1573 -2.0861 1.0920 0 117 69
-0.1317 -2.0891 1.0933 0 119 25
-0.1061 -2.0918 1.0945 0 121 181
-0.0804 -2.0942 1.0957 0 122 133
-0.0547 -2.0962 1.0969 0 124 250
-0.0290 -2.0980 1.0982 0 125 191
-0.0032 -2.0994 1.0994 0 127 156
0.0226 -2.1005 1.1006 0 128 130
0.0484 -2.1013 1.1019 0 130 13
0.0743 -2.1018 1.1031 0 132 17
0.1001 -2.1019 1.1043 0 133 157
0.1260 -2.1018 1.1055 0 135 1
0.1519 -2.1013 1.1068 0 136 10
0.1778 -2.1005 1.1080 0 138 56
0.2037 -2.0994 1.1092 0 139 226
0.2296 -2.0979 1.1105 0 141 117
0.2555 -2.0962 1.1117 0 142 181
0.2814 -2.0941 1.1129 1 144 105
0.3073 -2.0917 1.1141 1 146 44
0.3332 -2.0890 1.1154 1 147 95
0.3590 -2.0859 1.1166 1 149 23
0.3848 -2.0826 1.1178 2 150 197
0.4106 -2.0789 1.1191 2 152 46
0.4364 -2.0749 1.1203 2 153 96
0.4621 -2.0706 1.1215 3 155 250
0.4878 -2.0659 1.1227 3 156 151
0.5134 -2.0610 1.1240 3 158 117
0.5390 -2.0557 1.1252 4 159 139
0.5645 -2.0501 1.1264 4 161 200
0.5900 -2.0442 1.1277 5 162 65
0.6154 -2.0380 1.1289 5 164 162
0.6408 -2.0314 1.1301 5 165 223
0.6661 -2.0246 1.1313 6 167 146
0.6913 -2.0174 1.1326 6 168 114
0.7164 -2.0099 1.1338 7 170 37
0.7415 -2.0021 1.1350 7 171 63
0.7665 -1.9940 1.1363 8 173 242
0.7914 -1.9856 1.1375 9 174 138
0.8162 -1.9769 1.1387 9 176 77
0.8409 -1.9678 1.1399 10 177 107
0.8655 -1.9585 1.1412 10 179 147
0.8900 -1.9488 1.1424 11 180 137
0.9144 -1.9388 1.1436 12 181 179
0.9387 -1.9286 1.1449 12 183 65
0.9628 -1.9180 1.1461 13 184 166
0.9869 -1.9071 1.1473 14 186 113
1.0108 -1.8959 1.1485 14 187 240
1.0346 -1.8844 1.1498 15 188 40
1.0583 -1.8726 1.1510 16 190 38
1.0818 -1.8606 1.1522 17 191 118
1.1052 -1.8482 1.1535 18 192 130
1.1285 -1.8355 1.1547 18 194 176
1.1516 -1.8226 1.1559 19 195 103
1.1746 -1.8093 1.1571 20 196 233
1.1974 -1.7958 1.1584 21 198 121
1.2201 -1.7819 1.1596 22 199 33
1.2426 -1.7678 1.1608 23 200 30
1.2649 -1.7534 1.1621 24 202 249
1.2871 -1.7387 1.1633 25 203 34
1.3091 -1.7238 1.1645 25 204 242
1.3309 -1.7085 1.1657 26 205 71
1.3526 -1.6930 1.1670 27 207 23
1.3740 -1.6772 1.1682 28 208 78
1.3953 -1.6612 1.1694 29 209 157
1.4164 -1.6448 1.1707 30 210 109
1.4373 -1.6282 1.1719 31 211 201
1.4581 -1.6114 1.1731 32 213 156
1.4786 -1.5942 1.1743 34 214 102
1.4989 -1.5768 1.1756 35 215 162
1.5190 -1.5592 1.1768 36 216 248
1.5389 -1.5413 1.1780 37 217 105
1.5586 -1.5231 1.1792 38 218 39
1.5781 -1.5047 1.1805 39 219 104
1.5973 -1.4860 1.1817 40 220 215
1.6164 -1.4671 1.1829 41 221 55
1.6352 -1.4480 1.1842 42 222 242
1.6538 -1.4286 1.1854 44 223 150
1.6722 -1.4090 1.1866 45 225 154
1.6903 -1.3891 1.1878 46 226 81
1.7082 -1.3690 1.1891 47 226 235
1.7258 -1.3487 1.1903 48 227 9
1.7433 -1.3281 1.1915 50 228 76
1.7604 -1.3073 1.1928 51 229 107
1.7773 -1.2863 1.1940 52 230 122
1.7940 -1.2651 1.1952 54 231 121
1.8104 -1.2437 1.1964 55 232 37
1.8266 -1.2220 1.1977 56 233 57
1.8425 -1.2002 1.1989 57 234 24
1.8581 -1.1781 1.2001 59 235 146
1.8735 -1.1558 1.2014 60 236 89
1.8886 -1.1334 1.2026 61 236 144
1.9035 -1.1107 1.2038 63 237 150
1.9180 -1.0878 1.2050 64 238 179
1.9323 -1.0648 1.2063 65 239 140
1.9463 -1.0415 1.2075 67 239 165
1.9601 -1.0181 1.2087 68 240 150
1.9735 -0.9945 1.2100 70 241 167
1.9867 -0.9707 1.2112 71 242 157
1.9996 -0.9468 1.2124 72 242 80
2.0122 -0.9227 1.2136 74 243 63
2.0245 -0.8984 1.2149 75 244 201
2.0365 -0.8739 1.2161 77 244 87
2.0482 -0.8493 1.2173 78 245 140
2.0596 -0.8246 1.2186 80 245 50
2.0708 -0.7996 1.2198 81 246 110
2.0816 -0.7746 1.2210 83 246 135
2.0921 -0.7494 1.2222 84 247 160
2.1023 -0.7240 1.2235 85 248 134
2.1122 -0.6985 1.2247 87 248 92
2.1218 -0.6729 1.2259 88 249 246
2.1311 -0.6471 1.2272 90 249 131
2.1400 -0.6212 1.2284 91 249 206
2.1487 -0.5952 1.2296 93 250 188
2.1570 -0.5691 1.2308 94 250 142
2.1650 -0.5429 1.2321 96 251 226
2.1727 -0.5165 1.2333 98 251 32
2.1801 -0.4901 1.2345 99 251 235
2.1872 -0.4635 1.2358 101 252 217
2.1939 -0.4368 1.2370 102 252 128
2.2003 -0.4101 1.2382 104 252 187
2.2064 -0.3832 1.2394 105 253 133
2.2122 -0.3563 1.2407 107 253 68
2.2176 -0.3293 1.2419 108 253 204
2.2227 -0.3022 1.2431 110 253 62
2.2274 -0.2750 1.2444 111 254 80
2.2319 -0.2478 1.2456 113 254 132
2.2360 -0.2204 1.2468 114 254 214
2.2397 -0.1931 1.2480 116 254 98
2.2432 -0.1656 1.2493 118 254 126
2.2463 -0.1381 1.2505 119 254 10
2.2490 -0.1106 1.2517 121 254 29
2.2514 -0.0830 1.2530 122 254 14
2.2535 -0.0554 1.2542 124 254 18
2.2552 -0.0277 1.2554 125 254 222
2.2566 -0.0000 1.2566 127 255 215
